<svg xmlns="http://www.w3.org/2000/svg" width="40" height="40" viewBox="0 0 40 40">
    <path fill="#43A3FF" d="M8.75 21C6.5 19.25 5 16.75 5 13.75 5 9 9 5 13.75 5s8.75 4 8.75 8.75c0 3-1.5 5.5-3.75 7.25 5 2 8.75 7 8.75 12.75 0 .75-.5 1.25-1.25 1.25S25 34.5 25 33.75c0-6.25-5-11.25-11.25-11.25S2.5 27.5 2.5 33.75C2.5 34.5 2 35 1.25 35S0 34.5 0 33.75C0 28 3.75 23 8.75 21zm17.5-13.5C25.5 7.5 25 7 25 6.25S25.5 5 26.25 5C31 5 35 9 35 13.75c0 3-1.5 5.5-3.75 7.25 5 2 8.75 7 8.75 12.75 0 .75-.5 1.25-1.25 1.25s-1.25-.5-1.25-1.25c0-6.25-5-11.25-11.25-11.25-.75 0-1.25-.5-1.25-1.25S25.5 20 26.25 20c3.5 0 6.25-2.75 6.25-6.25S29.75 7.5 26.25 7.5zM13.75 20c3.5 0 6.25-2.75 6.25-6.25S17.25 7.5 13.75 7.5 7.5 10.25 7.5 13.75 10.25 20 13.75 20z"/>
</svg>
